<?xml version="1.0" encoding="us-ascii" standalone="no"?><svg xmlns="http://www.w3.org/2000/svg" xmlns:xlink="http://www.w3.org/1999/xlink" contentStyleType="text/css" height="2042px" preserveAspectRatio="none" style="width:1106px;height:2042px;" version="1.1" viewBox="0 0 1106 2042" width="1106px" zoomAndPan="magnify"><defs/><g><ellipse cx="564" cy="16" fill="#222222" rx="10" ry="10" style="stroke:#222222;stroke-width:1.0;"/><path d="M518.5,87 L609.5,87 A12.5,12.5 0 0 1 622,99.5 L622,111.1328 L506,111.1328 L506,99.5 A12.5,12.5 0 0 1 518.5,87 " fill="#FFFFE0" style="stroke:#FFFFE0;stroke-width:1.0;"/><rect fill="none" height="237.1328" rx="12.5" ry="12.5" style="stroke:#000000;stroke-width:0.5;" width="116" x="506" y="87"/><line style="stroke:#000000;stroke-width:0.5;" x1="506" x2="622" y1="111.1328" y2="111.1328"/><text fill="#000000" font-family="sans-serif" font-size="12" lengthAdjust="spacing" textLength="58" x="535" y="103.6016">MainMenu</text><g id="MainMenu.title"><rect fill="#F1F1F1" height="50" rx="12.5" ry="12.5" style="stroke:#000000;stroke-width:0.5;" width="91" x="520" y="178.1328"/><line style="stroke:#000000;stroke-width:0.5;" x1="520" x2="611" y1="202.2656" y2="202.2656"/><text fill="#000000" font-family="sans-serif" font-size="12" lengthAdjust="spacing" textLength="71" x="530" y="194.7344">Display Title</text></g><g id="MainMenu.options"><rect fill="#F1F1F1" height="50" rx="12.5" ry="12.5" style="stroke:#000000;stroke-width:0.5;" width="95" x="518" y="264.1328"/><line style="stroke:#000000;stroke-width:0.5;" x1="518" x2="613" y1="288.2656" y2="288.2656"/><text fill="#000000" font-family="sans-serif" font-size="12" lengthAdjust="spacing" textLength="75" x="528" y="280.7344">Show Buttons</text></g><ellipse cx="565.5" cy="132.1328" fill="#222222" rx="10" ry="10" style="stroke:#222222;stroke-width:1.0;"/><!--link *start*MainMenu to title--><g id="link_*start*MainMenu_title"><path d="M565.5,142.4428 C565.5,151.4828 565.5,159.6228 565.5,171.8628 " fill="none" id="*start*MainMenu-to-title" style="stroke:#181818;stroke-width:1.0;"/><polygon fill="#181818" points="565.5,177.8628,569.5,168.8628,565.5,172.8628,561.5,168.8628,565.5,177.8628" style="stroke:#181818;stroke-width:1.0;"/></g><!--link title to options--><g id="link_title_options"><path d="M565.5,228.4328 C565.5,239.5728 565.5,246.7528 565.5,257.8928 " fill="none" id="title-to-options" style="stroke:#181818;stroke-width:1.0;"/><polygon fill="#181818" points="565.5,263.8928,569.5,254.8928,565.5,258.8928,561.5,254.8928,565.5,263.8928" style="stroke:#181818;stroke-width:1.0;"/></g><path d="M89.75,401.13 L816.25,401.13 A12.5,12.5 0 0 1 828.75,413.63 L828.75,425.2628 L77.25,425.2628 L77.25,413.63 A12.5,12.5 0 0 1 89.75,401.13 " fill="#ADD8E6" style="stroke:#ADD8E6;stroke-width:1.0;"/><rect fill="none" height="323.1328" rx="12.5" ry="12.5" style="stroke:#000000;stroke-width:0.5;" width="751.5" x="77.25" y="401.13"/><line style="stroke:#000000;stroke-width:0.5;" x1="77.25" x2="828.75" y1="425.2628" y2="425.2628"/><text fill="#000000" font-family="sans-serif" font-size="12" lengthAdjust="spacing" textLength="90" x="408" y="417.7316">HomebaseState</text><g id="HomebaseState.transfer"><rect fill="#F1F1F1" height="50" rx="12.5" ry="12.5" style="stroke:#000000;stroke-width:0.5;" width="173" x="420.25" y="492.2628"/><line style="stroke:#000000;stroke-width:0.5;" x1="420.25" x2="593.25" y1="516.3956" y2="516.3956"/><text fill="#000000" font-family="sans-serif" font-size="12" lengthAdjust="spacing" textLength="153" x="430.25" y="508.8644">Transfer Items from Buffer</text></g><g id="HomebaseState.homebase"><rect fill="#F1F1F1" height="50" rx="12.5" ry="12.5" style="stroke:#000000;stroke-width:0.5;" width="159" x="427.25" y="578.2628"/><line style="stroke:#000000;stroke-width:0.5;" x1="427.25" x2="586.25" y1="602.3956" y2="602.3956"/><text fill="#000000" font-family="sans-serif" font-size="12" lengthAdjust="spacing" textLength="139" x="437.25" y="594.8644">Move around homebase</text></g><g id="HomebaseState.inventory"><rect fill="#F1F1F1" height="50" rx="12.5" ry="12.5" style="stroke:#000000;stroke-width:0.5;" width="165" x="89.25" y="664.2628"/><line style="stroke:#000000;stroke-width:0.5;" x1="89.25" x2="254.25" y1="688.3956" y2="688.3956"/><text fill="#000000" font-family="sans-serif" font-size="12" lengthAdjust="spacing" textLength="145" x="99.25" y="680.8644">Open Full Inventory Menu</text></g><g id="HomebaseState.research"><rect fill="#F1F1F1" height="50" rx="12.5" ry="12.5" style="stroke:#000000;stroke-width:0.5;" width="143" x="272.25" y="664.2628"/><line style="stroke:#000000;stroke-width:0.5;" x1="272.25" x2="415.25" y1="688.3956" y2="688.3956"/><text fill="#000000" font-family="sans-serif" font-size="12" lengthAdjust="spacing" textLength="123" x="282.25" y="680.8644">Open Research Menu</text></g><g id="HomebaseState.upgrades"><rect fill="#F1F1F1" height="50" rx="12.5" ry="12.5" style="stroke:#000000;stroke-width:0.5;" width="146" x="433.75" y="664.2628"/><line style="stroke:#000000;stroke-width:0.5;" x1="433.75" x2="579.75" y1="688.3956" y2="688.3956"/><text fill="#000000" font-family="sans-serif" font-size="12" lengthAdjust="spacing" textLength="126" x="443.75" y="680.8644">Open Upgrades Menu</text></g><g id="HomebaseState.store"><rect fill="#F1F1F1" height="50" rx="12.5" ry="12.5" style="stroke:#000000;stroke-width:0.5;" width="119" x="598.25" y="664.2628"/><line style="stroke:#000000;stroke-width:0.5;" x1="598.25" x2="717.25" y1="688.3956" y2="688.3956"/><text fill="#000000" font-family="sans-serif" font-size="12" lengthAdjust="spacing" textLength="99" x="608.25" y="680.8644">Open Store Menu</text></g><g id="HomebaseState.save"><rect fill="#F1F1F1" height="50" rx="12.5" ry="12.5" style="stroke:#000000;stroke-width:0.5;" width="84" x="735.75" y="664.2628"/><line style="stroke:#000000;stroke-width:0.5;" x1="735.75" x2="819.75" y1="688.3956" y2="688.3956"/><text fill="#000000" font-family="sans-serif" font-size="12" lengthAdjust="spacing" textLength="64" x="745.75" y="680.8644">Save Game</text></g><ellipse cx="506.75" cy="446.2628" fill="#222222" rx="10" ry="10" style="stroke:#222222;stroke-width:1.0;"/><!--link *start*HomebaseState to transfer--><g id="link_*start*HomebaseState_transfer"><path d="M506.75,456.5728 C506.75,465.6128 506.75,473.7528 506.75,485.9928 " fill="none" id="*start*HomebaseState-to-transfer" style="stroke:#181818;stroke-width:1.0;"/><polygon fill="#181818" points="506.75,491.9928,510.75,482.9928,506.75,486.9928,502.75,482.9928,506.75,491.9928" style="stroke:#181818;stroke-width:1.0;"/></g><!--link transfer to homebase--><g id="link_transfer_homebase"><path d="M506.75,542.5628 C506.75,553.7028 506.75,560.8828 506.75,572.0228 " fill="none" id="transfer-to-homebase" style="stroke:#181818;stroke-width:1.0;"/><polygon fill="#181818" points="506.75,578.0228,510.75,569.0228,506.75,573.0228,502.75,569.0228,506.75,578.0228" style="stroke:#181818;stroke-width:1.0;"/></g><!--link homebase to inventory--><g id="link_homebase_inventory"><path d="M427.01,621.8028 C377.37,633.6128 318.2057,648.1571 260.9057,662.6971 " fill="none" id="homebase-to-inventory" style="stroke:#181818;stroke-width:1.0;"/><polygon fill="#181818" points="255.09,664.1728,264.7974,665.8363,259.9364,662.943,262.8297,658.0821,255.09,664.1728" style="stroke:#181818;stroke-width:1.0;"/></g><!--link homebase to research--><g id="link_homebase_research"><path d="M453.42,628.5628 C431.14,639.6528 410.984,649.949 390.174,661.049 " fill="none" id="homebase-to-research" style="stroke:#181818;stroke-width:1.0;"/><polygon fill="#181818" points="384.88,663.8728,394.7035,663.1664,389.2916,661.5197,390.9384,656.1078,384.88,663.8728" style="stroke:#181818;stroke-width:1.0;"/></g><!--link homebase to store--><g id="link_homebase_store"><path d="M544.24,628.5628 C563.44,639.6528 581.7217,649.9384 602.4317,661.0384 " fill="none" id="homebase-to-store" style="stroke:#181818;stroke-width:1.0;"/><polygon fill="#181818" points="607.72,663.8728,601.6771,656.0957,603.3131,661.5108,597.8979,663.1468,607.72,663.8728" style="stroke:#181818;stroke-width:1.0;"/></g><!--link homebase to upgrades--><g id="link_homebase_upgrades"><path d="M500.56,628.5628 C499.81,639.7028 499.4016,646.8967 500.1616,658.0367 " fill="none" id="homebase-to-upgrades" style="stroke:#181818;stroke-width:1.0;"/><polygon fill="#181818" points="500.57,664.0228,503.9481,654.7714,500.2297,659.0344,495.9667,655.3159,500.57,664.0228" style="stroke:#181818;stroke-width:1.0;"/></g><!--link homebase to save--><g id="link_homebase_save"><path d="M586.65,624.5628 C626.51,634.8728 675.12,648.5528 717.75,664.2628 C723.53,666.3928 724.0684,666.5158 729.9984,669.1258 " fill="none" id="homebase-to-save" style="stroke:#181818;stroke-width:1.0;"/><polygon fill="#181818" points="735.49,671.5428,728.8639,664.2562,730.9137,669.5286,725.6412,671.5783,735.49,671.5428" style="stroke:#181818;stroke-width:1.0;"/></g><!--link inventory to homebase--><g id="link_inventory_homebase"><path d="M254.52,668.9228 C260.7,667.3328 266.83,665.7628 272.75,664.2628 C324.13,651.2128 375.9097,638.4401 421.1597,627.1101 " fill="none" id="inventory-to-homebase" style="stroke:#181818;stroke-width:1.0;"/><polygon fill="#181818" points="426.98,625.6528,417.278,623.9586,422.1297,626.8673,419.2211,631.719,426.98,625.6528" style="stroke:#181818;stroke-width:1.0;"/></g><!--link research to homebase--><g id="link_research_homebase"><path d="M397.26,663.8728 C419.56,652.7728 439.7167,642.4778 460.4967,631.3878 " fill="none" id="research-to-homebase" style="stroke:#181818;stroke-width:1.0;"/><polygon fill="#181818" points="465.79,628.5628,455.9667,629.2714,461.3789,630.917,459.7333,636.3292,465.79,628.5628" style="stroke:#181818;stroke-width:1.0;"/></g><!--link store to homebase--><g id="link_store_homebase"><path d="M620.1,663.8728 C600.88,652.7728 582.5988,642.4863 561.8988,631.3963 " fill="none" id="store-to-homebase" style="stroke:#181818;stroke-width:1.0;"/><polygon fill="#181818" points="556.61,628.5628,562.6542,636.3389,561.0173,630.924,566.4322,629.2871,556.61,628.5628" style="stroke:#181818;stroke-width:1.0;"/></g><!--link upgrades to homebase--><g id="link_upgrades_homebase"><path d="M512.93,664.0228 C513.69,652.8828 514.093,645.6893 513.343,634.5493 " fill="none" id="upgrades-to-homebase" style="stroke:#181818;stroke-width:1.0;"/><polygon fill="#181818" points="512.94,628.5628,509.5536,637.8112,513.2759,633.5515,517.5355,637.2738,512.94,628.5628" style="stroke:#181818;stroke-width:1.0;"/></g><!--link save to homebase--><g id="link_save_homebase"><path d="M735.47,664.1628 C687.15,646.3728 637.0161,632.5857 592.4761,621.9557 " fill="none" id="save-to-homebase" style="stroke:#181818;stroke-width:1.0;"/><polygon fill="#181818" points="586.64,620.5628,594.4656,626.5428,591.5034,621.7235,596.3227,618.7614,586.64,620.5628" style="stroke:#181818;stroke-width:1.0;"/></g><path d="M212,1074.39 L552,1074.39 A12.5,12.5 0 0 1 564.5,1086.89 L564.5,1098.5228 L199.5,1098.5228 L199.5,1086.89 A12.5,12.5 0 0 1 212,1074.39 " fill="#F1F1F1" style="stroke:#F1F1F1;stroke-width:1.0;"/><rect fill="none" height="618.4028" rx="12.5" ry="12.5" style="stroke:#000000;stroke-width:0.5;" width="365" x="199.5" y="1074.39"/><line style="stroke:#000000;stroke-width:0.5;" x1="199.5" x2="564.5" y1="1098.5228" y2="1098.5228"/><text fill="#000000" font-family="sans-serif" font-size="12" lengthAdjust="spacing" textLength="53" x="355.5" y="1090.9916">DiveState</text><g id="DiveState.spawn"><rect fill="#F1F1F1" height="50" rx="12.5" ry="12.5" style="stroke:#000000;stroke-width:0.5;" width="117" x="325" y="1165.5228"/><line style="stroke:#000000;stroke-width:0.5;" x1="325" x2="442" y1="1189.6556" y2="1189.6556"/><text fill="#000000" font-family="sans-serif" font-size="12" lengthAdjust="spacing" textLength="97" x="335" y="1182.1244">Spawn Creatures</text></g><g id="DiveState.tempInv"><rect fill="#F1F1F1" height="50" rx="12.5" ry="12.5" style="stroke:#000000;stroke-width:0.5;" width="163" x="302" y="1632.7928"/><line style="stroke:#000000;stroke-width:0.5;" x1="302" x2="465" y1="1656.9256" y2="1656.9256"/><text fill="#000000" font-family="sans-serif" font-size="12" lengthAdjust="spacing" textLength="143" x="312" y="1649.3944">View Temporal Inventory</text></g><ellipse cx="383.5" cy="1119.5228" fill="#222222" rx="10" ry="10" style="stroke:#222222;stroke-width:1.0;"/><path d="M224,1251.5228 L543,1251.5228 A12.5,12.5 0 0 1 555.5,1264.0228 L555.5,1275.6556 L211.5,1275.6556 L211.5,1264.0228 A12.5,12.5 0 0 1 224,1251.5228 " fill="#F1F1F1" style="stroke:#F1F1F1;stroke-width:1.0;"/><rect fill="none" height="345.2656" rx="12.5" ry="12.5" style="stroke:#000000;stroke-width:0.5;" width="344" x="211.5" y="1251.5228"/><line style="stroke:#000000;stroke-width:0.5;" x1="211.5" x2="555.5" y1="1275.6556" y2="1275.6556"/><text fill="#000000" font-family="sans-serif" font-size="12" lengthAdjust="spacing" textLength="56" x="355.5" y="1268.1244">gameplay</text><path d="M236,1287.6556 L534,1287.6556 A12.5,12.5 0 0 1 546.5,1300.1556 L546.5,1311.7884 L223.5,1311.7884 L223.5,1300.1556 A12.5,12.5 0 0 1 236,1287.6556 " fill="#F1F1F1" style="stroke:#F1F1F1;stroke-width:1.0;"/><rect fill="none" height="237.1328" rx="12.5" ry="12.5" style="stroke:#000000;stroke-width:0.5;" width="323" x="223.5" y="1287.6556"/><line style="stroke:#000000;stroke-width:0.5;" x1="223.5" x2="546.5" y1="1311.7884" y2="1311.7884"/><text fill="#000000" font-family="sans-serif" font-size="12" lengthAdjust="spacing" textLength="65" x="352.5" y="1304.2572">Exploration</text><g id="DiveState.gameplay.explore.moving"><rect fill="#F1F1F1" height="50" rx="12.5" ry="12.5" style="stroke:#000000;stroke-width:0.5;" width="60" x="381" y="1378.7884"/><line style="stroke:#000000;stroke-width:0.5;" x1="381" x2="441" y1="1402.9213" y2="1402.9213"/><text fill="#000000" font-family="sans-serif" font-size="12" lengthAdjust="spacing" textLength="40" x="391" y="1395.39">Moving</text></g><g id="DiveState.gameplay.explore.combat"><rect fill="#F1F1F1" height="50" rx="12.5" ry="12.5" style="stroke:#000000;stroke-width:0.5;" width="191" x="235.5" y="1464.7884"/><line style="stroke:#000000;stroke-width:0.5;" x1="235.5" x2="426.5" y1="1488.9213" y2="1488.9213"/><text fill="#000000" font-family="sans-serif" font-size="12" lengthAdjust="spacing" textLength="171" x="245.5" y="1481.39">Combat/Research/Harvesting</text></g><g id="DiveState.gameplay.explore.collect"><rect fill="#F1F1F1" height="50" rx="12.5" ry="12.5" style="stroke:#000000;stroke-width:0.5;" width="93" x="444.5" y="1464.7884"/><line style="stroke:#000000;stroke-width:0.5;" x1="444.5" x2="537.5" y1="1488.9213" y2="1488.9213"/><text fill="#000000" font-family="sans-serif" font-size="12" lengthAdjust="spacing" textLength="73" x="454.5" y="1481.39">Collect Items</text></g><ellipse cx="411" cy="1332.7884" fill="#222222" rx="10" ry="10" style="stroke:#222222;stroke-width:1.0;"/><!--link *start*explore to moving--><g id="link_*start*explore_moving"><path d="M411,1343.0984 C411,1352.1384 411,1360.2784 411,1372.5184 " fill="none" id="*start*explore-to-moving" style="stroke:#181818;stroke-width:1.0;"/><polygon fill="#181818" points="411,1378.5184,415,1369.5184,411,1373.5184,407,1369.5184,411,1378.5184" style="stroke:#181818;stroke-width:1.0;"/></g><!--link moving to combat--><g id="link_moving_combat"><path d="M381.67,1429.0884 C370.31,1440.2284 361.7344,1448.9135 351.8844,1460.0535 " fill="none" id="moving-to-combat" style="stroke:#181818;stroke-width:1.0;"/><polygon fill="#181818" points="347.91,1464.5484,356.8682,1460.4557,351.222,1460.8027,350.875,1455.1565,347.91,1464.5484" style="stroke:#181818;stroke-width:1.0;"/></g><!--link moving to collect--><g id="link_moving_collect"><path d="M427.95,1429.0884 C437.81,1440.2284 446.0861,1449.2075 457.4461,1460.3475 " fill="none" id="moving-to-collect" style="stroke:#181818;stroke-width:1.0;"/><polygon fill="#181818" points="461.73,1464.5484,458.1048,1455.3911,458.1601,1461.0476,452.5035,1461.1029,461.73,1464.5484" style="stroke:#181818;stroke-width:1.0;"/></g><!--link combat to moving--><g id="link_combat_moving"><path d="M360.27,1464.5484 C371.63,1453.4084 380.2133,1444.7213 390.0733,1433.5813 " fill="none" id="combat-to-moving" style="stroke:#181818;stroke-width:1.0;"/><polygon fill="#181818" points="394.05,1429.0884,385.0897,1433.1767,390.7361,1432.8325,391.0803,1438.4789,394.05,1429.0884" style="stroke:#181818;stroke-width:1.0;"/></g><!--link collect to moving--><g id="link_collect_moving"><path d="M474.09,1464.5484 C464.24,1453.4084 455.9739,1444.4294 444.6139,1433.2894 " fill="none" id="collect-to-moving" style="stroke:#181818;stroke-width:1.0;"/><polygon fill="#181818" points="440.33,1429.0884,443.9552,1438.2458,443.8999,1432.5892,449.5565,1432.5339,440.33,1429.0884" style="stroke:#181818;stroke-width:1.0;"/></g><line style="stroke:#000000;stroke-width:1.5;stroke-dasharray:8.0,10.0;" x1="216.5" x2="548.5" y1="1529.7884" y2="1529.7884"/><g id="DiveState.gameplay.CONC48.depth"><rect fill="#F1F1F1" height="50" rx="12.5" ry="12.5" style="stroke:#000000;stroke-width:0.5;" width="101" x="223.5" y="1536.7884"/><line style="stroke:#000000;stroke-width:0.5;" x1="223.5" x2="324.5" y1="1560.9213" y2="1560.9213"/><text fill="#000000" font-family="sans-serif" font-size="12" lengthAdjust="spacing" textLength="81" x="233.5" y="1553.39">Update Depth</text></g><g id="DiveState.gameplay.CONC48.hud"><rect fill="#F1F1F1" height="50" rx="12.5" ry="12.5" style="stroke:#000000;stroke-width:0.5;" width="79" x="342.5" y="1536.7884"/><line style="stroke:#000000;stroke-width:0.5;" x1="342.5" x2="421.5" y1="1560.9213" y2="1560.9213"/><text fill="#000000" font-family="sans-serif" font-size="12" lengthAdjust="spacing" textLength="59" x="352.5" y="1553.39">show HUD</text></g><!--link depth to hud--><g id="link_depth_hud"><path d="M324.63,1580.4684 C330.45,1580.7184 330.3768,1581.3918 336.2068,1580.3318 " fill="none" id="depth-to-hud" style="stroke:#181818;stroke-width:1.0;"/><polygon fill="#181818" points="342.11,1579.2584,332.5396,1576.9329,337.1907,1580.1529,333.9707,1584.8039,342.11,1579.2584" style="stroke:#181818;stroke-width:1.0;"/></g><!--reverse link depth to hud--><g id="link_depth_hud"><path d="M330.6245,1542.8509 C336.4445,1542.6009 336.28,1543.2584 342.11,1544.3184 " fill="none" id="depth-backto-hud" style="stroke:#181818;stroke-width:1.0;"/><polygon fill="#181818" points="324.63,1543.1084,333.7934,1546.7185,329.6254,1542.8939,333.45,1538.7259,324.63,1543.1084" style="stroke:#181818;stroke-width:1.0;"/></g><!--link *start*DiveState to spawn--><g id="link_*start*DiveState_spawn"><path d="M383.5,1129.8328 C383.5,1138.8828 383.5,1147.0128 383.5,1159.2628 " fill="none" id="*start*DiveState-to-spawn" style="stroke:#181818;stroke-width:1.0;"/><polygon fill="#181818" points="383.5,1165.2628,387.5,1156.2628,383.5,1160.2628,379.5,1156.2628,383.5,1165.2628" style="stroke:#181818;stroke-width:1.0;"/></g><!--link spawn to gameplay--><g id="link_spawn_gameplay"><path d="M383.5,1215.8828 C383.5,1225.6328 383.5,1231.7728 383.5,1245.2428 " fill="none" id="spawn-to-gameplay" style="stroke:#181818;stroke-width:1.0;"/><polygon fill="#181818" points="383.5,1251.2428,387.5,1242.2428,383.5,1246.2428,379.5,1242.2428,383.5,1251.2428" style="stroke:#181818;stroke-width:1.0;"/></g><!--link gameplay to tempInv--><g id="link_gameplay_tempInv"><path d="M377.51,1597.1428 C377.91,1610.6028 378.0303,1616.7382 378.7303,1626.4882 " fill="none" id="gameplay-to-tempInv" style="stroke:#181818;stroke-width:1.0;"/><polygon fill="#181818" points="379.16,1632.4728,382.5052,1623.2095,378.8019,1627.4856,374.5258,1623.7824,379.16,1632.4728" style="stroke:#181818;stroke-width:1.0;"/></g><!--link tempInv to gameplay--><g id="link_tempInv_gameplay"><path d="M387.84,1632.4728 C388.54,1622.7228 388.9118,1616.6002 389.3118,1603.1402 " fill="none" id="tempInv-to-gameplay" style="stroke:#181818;stroke-width:1.0;"/><polygon fill="#181818" points="389.49,1597.1428,385.2244,1606.02,389.3415,1602.1406,393.2209,1606.2577,389.49,1597.1428" style="stroke:#181818;stroke-width:1.0;"/></g><path d="M593.5,816.26 L724.5,816.26 A12.5,12.5 0 0 1 737,828.76 L737,840.3928 L581,840.3928 L581,828.76 A12.5,12.5 0 0 1 593.5,816.26 " fill="#FFFFE0" style="stroke:#FFFFE0;stroke-width:1.0;"/><rect fill="none" height="151.1328" rx="12.5" ry="12.5" style="stroke:#000000;stroke-width:0.5;" width="156" x="581" y="816.26"/><line style="stroke:#000000;stroke-width:0.5;" x1="581" x2="737" y1="840.3928" y2="840.3928"/><text fill="#000000" font-family="sans-serif" font-size="12" lengthAdjust="spacing" textLength="42" x="638" y="832.8616">Paused</text><g id="Paused.pauseMenu"><rect fill="#F1F1F1" height="50" rx="12.5" ry="12.5" style="stroke:#000000;stroke-width:0.5;" width="135" x="593" y="907.3928"/><line style="stroke:#000000;stroke-width:0.5;" x1="593" x2="728" y1="931.5256" y2="931.5256"/><text fill="#000000" font-family="sans-serif" font-size="12" lengthAdjust="spacing" textLength="115" x="603" y="923.9944">Display Pause Menu</text></g><ellipse cx="660.5" cy="861.3928" fill="#222222" rx="10" ry="10" style="stroke:#222222;stroke-width:1.0;"/><!--link *start*Paused to pauseMenu--><g id="link_*start*Paused_pauseMenu"><path d="M660.5,871.7028 C660.5,880.7428 660.5,888.8828 660.5,901.1228 " fill="none" id="*start*Paused-to-pauseMenu" style="stroke:#181818;stroke-width:1.0;"/><polygon fill="#181818" points="660.5,907.1228,664.5,898.1228,660.5,902.1228,656.5,898.1228,660.5,907.1228" style="stroke:#181818;stroke-width:1.0;"/></g><path d="M19.5,1799.8 L230.5,1799.8 A12.5,12.5 0 0 1 243,1812.3 L243,1823.9328 L7,1823.9328 L7,1812.3 A12.5,12.5 0 0 1 19.5,1799.8 " fill="#F08080" style="stroke:#F08080;stroke-width:1.0;"/><rect fill="none" height="237.1328" rx="12.5" ry="12.5" style="stroke:#000000;stroke-width:0.5;" width="236" x="7" y="1799.8"/><line style="stroke:#000000;stroke-width:0.5;" x1="7" x2="243" y1="1823.9328" y2="1823.9328"/><text fill="#000000" font-family="sans-serif" font-size="12" lengthAdjust="spacing" textLength="61" x="94.5" y="1816.4016">GameOver</text><g id="GameOver.death"><rect fill="#F1F1F1" height="50" rx="12.5" ry="12.5" style="stroke:#000000;stroke-width:0.5;" width="154" x="49.5" y="1890.9328"/><line style="stroke:#000000;stroke-width:0.5;" x1="49.5" x2="203.5" y1="1915.0656" y2="1915.0656"/><text fill="#000000" font-family="sans-serif" font-size="12" lengthAdjust="spacing" textLength="134" x="59.5" y="1907.5344">Display Death Message</text></g><g id="GameOver.lose"><rect fill="#F1F1F1" height="50" rx="12.5" ry="12.5" style="stroke:#000000;stroke-width:0.5;" width="215" x="19" y="1976.9328"/><line style="stroke:#000000;stroke-width:0.5;" x1="19" x2="234" y1="2001.0656" y2="2001.0656"/><text fill="#000000" font-family="sans-serif" font-size="12" lengthAdjust="spacing" textLength="195" x="29" y="1993.5344">Lose Temporal Inventory &amp; Money</text></g><ellipse cx="126.5" cy="1844.9328" fill="#222222" rx="10" ry="10" style="stroke:#222222;stroke-width:1.0;"/><!--link *start*GameOver to death--><g id="link_*start*GameOver_death"><path d="M126.5,1855.2428 C126.5,1864.2828 126.5,1872.4228 126.5,1884.6628 " fill="none" id="*start*GameOver-to-death" style="stroke:#181818;stroke-width:1.0;"/><polygon fill="#181818" points="126.5,1890.6628,130.5,1881.6628,126.5,1885.6628,122.5,1881.6628,126.5,1890.6628" style="stroke:#181818;stroke-width:1.0;"/></g><!--link death to lose--><g id="link_death_lose"><path d="M126.5,1941.2328 C126.5,1952.3728 126.5,1959.5528 126.5,1970.6928 " fill="none" id="death-to-lose" style="stroke:#181818;stroke-width:1.0;"/><polygon fill="#181818" points="126.5,1976.6928,130.5,1967.6928,126.5,1971.6928,122.5,1967.6928,126.5,1976.6928" style="stroke:#181818;stroke-width:1.0;"/></g><ellipse cx="828" cy="1383.6" fill="none" rx="11" ry="11" style="stroke:#222222;stroke-width:1.0;"/><ellipse cx="828" cy="1383.6" fill="#222222" rx="6" ry="6" style="stroke:#222222;stroke-width:1.0;"/><g id="elem_GMN80"><path d="M657.5,185.25 L657.5,201.56 L622.17,205.56 L657.5,209.56 L657.5,225.8711 A0,0 0 0 0 657.5,225.8711 L840.5,225.8711 A0,0 0 0 0 840.5,225.8711 L840.5,195.25 L830.5,185.25 L657.5,185.25 A0,0 0 0 0 657.5,185.25 " fill="#FEFFDD" style="stroke:#181818;stroke-width:0.5;"/><path d="M830.5,185.25 L830.5,195.25 L840.5,195.25 L830.5,185.25 " fill="#FEFFDD" style="stroke:#181818;stroke-width:0.5;"/><text fill="#000000" font-family="sans-serif" font-size="13" lengthAdjust="spacing" textLength="69" x="663.5" y="202.8184">Entry point</text><text fill="#000000" font-family="sans-serif" font-size="13" lengthAdjust="spacing" textLength="162" x="663.5" y="218.1289">Options: Load Game, Quit</text></g><g id="elem_GMN83"><path d="M278.5,1882.74 L278.5,1914.36 L243.42,1918.36 L278.5,1922.36 L278.5,1953.9822 A0,0 0 0 0 278.5,1953.9822 L395.5,1953.9822 A0,0 0 0 0 395.5,1953.9822 L395.5,1892.74 L385.5,1882.74 L278.5,1882.74 A0,0 0 0 0 278.5,1882.74 " fill="#FEFFDD" style="stroke:#181818;stroke-width:0.5;"/><path d="M385.5,1882.74 L385.5,1892.74 L395.5,1892.74 L385.5,1882.74 " fill="#FEFFDD" style="stroke:#181818;stroke-width:0.5;"/><text fill="#000000" font-family="sans-serif" font-size="13" lengthAdjust="spacing" textLength="96" x="284.5" y="1900.3084">Happens when:</text><text fill="#000000" font-family="sans-serif" font-size="13" lengthAdjust="spacing" textLength="80" x="284.5" y="1915.6189">- Health is 0</text><text fill="#000000" font-family="sans-serif" font-size="13" lengthAdjust="spacing" textLength="87" x="284.5" y="1930.9295">- Oxygen is 0</text><text fill="#000000" font-family="sans-serif" font-size="13" lengthAdjust="spacing" textLength="16" x="284.5" y="1946.24">&#160;&#160;&#160;&#160;</text></g><!--link *start* to MainMenu--><g id="link_*start*_MainMenu"><path d="M564,26.3 C564,38.49 564,55.34 564,80.71 " fill="none" id="*start*-to-MainMenu" style="stroke:#181818;stroke-width:1.0;"/><polygon fill="#181818" points="564,86.71,568,77.71,564,81.71,560,77.71,564,86.71" style="stroke:#181818;stroke-width:1.0;"/></g><!--link MainMenu to HomebaseState--><g id="link_MainMenu_HomebaseState"><path d="M505.68,263.62 C483.76,289.02 461.4,320.73 450,354.13 C444.94,368.97 442.3953,378.7928 440.4753,394.7828 " fill="none" id="MainMenu-to-HomebaseState" style="stroke:#181818;stroke-width:1.0;"/><polygon fill="#181818" points="439.76,400.74,444.8044,392.2811,440.3561,395.7757,436.8615,391.3273,439.76,400.74" style="stroke:#181818;stroke-width:1.0;"/><text fill="#000000" font-family="sans-serif" font-size="13" lengthAdjust="spacing" textLength="69" x="451" y="367.6984">Load Game</text></g><!--link HomebaseState to MainMenu--><g id="link_HomebaseState_MainMenu"><path d="M515.45,400.78 C518.81,390.79 522.02,380.85 525,371.13 C529.6,356.11 532.4911,345.9923 536.5411,330.1823 " fill="none" id="HomebaseState-to-MainMenu" style="stroke:#181818;stroke-width:1.0;"/><polygon fill="#181818" points="538.03,324.37,531.9217,332.0959,536.7892,329.2136,539.6715,334.0811,538.03,324.37" style="stroke:#181818;stroke-width:1.0;"/><text fill="#000000" font-family="sans-serif" font-size="13" lengthAdjust="spacing" textLength="96" x="529.9" y="367.6984">Return to Menu</text></g><!--link MainMenu to *end*--><g id="link_MainMenu_*end*"><path d="M622.31,307.33 C627.85,313.42 633.75,319.1 640,324.13 C716.17,385.38 784.74,324.96 846,401.13 C1099.94,716.86 869.0464,1287.1464 834.4964,1367.6464 " fill="none" id="MainMenu-to-*end*" style="stroke:#181818;stroke-width:1.0;"/><polygon fill="#181818" points="832.13,1373.16,839.3554,1366.4672,834.102,1368.5653,832.0039,1363.312,832.13,1373.16" style="stroke:#181818;stroke-width:1.0;"/><text fill="#000000" font-family="sans-serif" font-size="13" lengthAdjust="spacing" textLength="27" x="964.01" y="775.3284">Quit</text></g><!--link HomebaseState to DiveState--><g id="link_HomebaseState_DiveState"><path d="M266.2,724.59 C243.73,752.74 224.13,783.58 211,816.26 C177.98,898.46 184.8604,983.8238 210.8304,1068.4838 " fill="none" id="HomebaseState-to-DiveState" style="stroke:#181818;stroke-width:1.0;"/><polygon fill="#181818" points="212.59,1074.22,213.7747,1064.4427,211.1237,1069.4398,206.1265,1066.7888,212.59,1074.22" style="stroke:#181818;stroke-width:1.0;"/><text fill="#000000" font-family="sans-serif" font-size="13" lengthAdjust="spacing" textLength="126" x="212" y="896.8984">Start dive from door</text></g><!--link DiveState to HomebaseState--><g id="link_DiveState_HomebaseState"><path d="M381.17,1073.95 C383.69,990.12 388.93,899.51 399,816.26 C402.61,786.44 406.8459,760.804 412.8859,730.534 " fill="none" id="DiveState-to-HomebaseState" style="stroke:#181818;stroke-width:1.0;"/><polygon fill="#181818" points="414.06,724.65,408.3762,732.6933,413.0816,729.5533,416.2216,734.2587,414.06,724.65" style="stroke:#181818;stroke-width:1.0;"/><text fill="#000000" font-family="sans-serif" font-size="13" lengthAdjust="spacing" textLength="162" x="400" y="889.3984">Interact with access point</text><text fill="#000000" font-family="sans-serif" font-size="13" lengthAdjust="spacing" textLength="49" x="456.5" y="904.7089">(Return)</text></g><!--link HomebaseState to Paused--><g id="link_HomebaseState_Paused"><path d="M487.05,724.49 C495.49,746.31 505.98,767.58 519,786.26 C523.86,793.23 546.4067,810.5923 575.6967,831.8823 " fill="none" id="HomebaseState-to-Paused" style="stroke:#181818;stroke-width:1.0;"/><polygon fill="#181818" points="580.55,835.41,575.6218,826.8828,576.5055,832.4702,570.9181,833.3539,580.55,835.41" style="stroke:#181818;stroke-width:1.0;"/><text fill="#000000" font-family="sans-serif" font-size="13" lengthAdjust="spacing" textLength="49" x="520" y="775.3284">ESC key</text></g><!--link Paused to HomebaseState--><g id="link_Paused_HomebaseState"><path d="M612.58,815.97 C600.09,795.91 586.56,774.24 574,754.26 C567.9,744.56 564.8149,739.6523 558.4649,729.6023 " fill="none" id="Paused-to-HomebaseState" style="stroke:#181818;stroke-width:1.0;"/><polygon fill="#181818" points="555.26,724.53,556.6858,734.2751,557.9308,728.7569,563.4489,730.0019,555.26,724.53" style="stroke:#181818;stroke-width:1.0;"/><text fill="#000000" font-family="sans-serif" font-size="13" lengthAdjust="spacing" textLength="88" x="633.72" y="767.8284">Resume Game</text><text fill="#000000" font-family="sans-serif" font-size="13" lengthAdjust="spacing" textLength="168" x="593.72" y="783.1389">(if paused from homebase)</text></g><!--link DiveState to Paused--><g id="link_DiveState_Paused"><path d="M556.48,1074.09 C578.69,1034.82 596.6258,1003.1123 613.6758,972.9723 " fill="none" id="DiveState-to-Paused" style="stroke:#181818;stroke-width:1.0;"/><polygon fill="#181818" points="616.63,967.75,608.7171,973.614,614.1681,972.1019,615.6802,977.553,616.63,967.75" style="stroke:#181818;stroke-width:1.0;"/><text fill="#000000" font-family="sans-serif" font-size="13" lengthAdjust="spacing" textLength="49" x="600.17" y="1025.9584">ESC key</text></g><!--link Paused to DiveState--><g id="link_Paused_DiveState"><path d="M580.6,953.03 C571.88,958.34 562.92,963.26 554,967.39 C505.3,989.98 472.83,957.42 437,997.39 C416.93,1019.78 404.3112,1040.4113 393.6412,1068.4913 " fill="none" id="Paused-to-DiveState" style="stroke:#181818;stroke-width:1.0;"/><polygon fill="#181818" points="391.51,1074.1,398.446,1067.1077,393.286,1069.4261,390.9677,1064.2661,391.51,1074.1" style="stroke:#181818;stroke-width:1.0;"/><text fill="#000000" font-family="sans-serif" font-size="13" lengthAdjust="spacing" textLength="88" x="459" y="1018.4584">Resume Game</text><text fill="#000000" font-family="sans-serif" font-size="13" lengthAdjust="spacing" textLength="130" x="438" y="1033.7689">(if paused from dive)</text></g><!--link DiveState to GameOver--><g id="link_DiveState_GameOver"><path d="M233.25,1692.97 C215.04,1730.71 199.9967,1761.8858 184.4167,1794.1858 " fill="none" id="DiveState-to-GameOver" style="stroke:#181818;stroke-width:1.0;"/><polygon fill="#181818" points="181.81,1799.59,189.3229,1793.2216,183.9823,1795.0865,182.1173,1789.7459,181.81,1799.59" style="stroke:#181818;stroke-width:1.0;"/><text fill="#000000" font-family="sans-serif" font-size="13" lengthAdjust="spacing" textLength="78" x="220.46" y="1736.3684">Player Death</text><text fill="#000000" font-family="sans-serif" font-size="13" lengthAdjust="spacing" textLength="86" x="216.46" y="1751.6789">(health = 0 or</text><text fill="#000000" font-family="sans-serif" font-size="13" lengthAdjust="spacing" textLength="76" x="221.46" y="1766.9895">oxygen = 0)</text></g><!--link Paused to *end*--><g id="link_Paused_*end*"><path d="M677.69,967.65 C684.24,992.25 691.98,1019.63 700,1044.39 C742.82,1176.7 805.0575,1327.7036 821.6775,1367.4936 " fill="none" id="Paused-to-*end*" style="stroke:#181818;stroke-width:1.0;"/><polygon fill="#181818" points="823.99,1373.03,824.2122,1363.1836,822.0629,1368.4163,816.8302,1366.267,823.99,1373.03" style="stroke:#181818;stroke-width:1.0;"/><text fill="#000000" font-family="sans-serif" font-size="13" lengthAdjust="spacing" textLength="27" x="800" y="1010.9584">Quit</text><text fill="#000000" font-family="sans-serif" font-size="13" lengthAdjust="spacing" textLength="225" x="701" y="1026.2689">(Would be nice ask for confirmation</text><text fill="#000000" font-family="sans-serif" font-size="13" lengthAdjust="spacing" textLength="148" x="739.5" y="1041.5795">if user is on dive State.)</text></g><!--link GameOver to HomebaseState--><g id="link_GameOver_HomebaseState"><path d="M107.25,1799.68 C81.1,1592.45 48.58,1152.55 182,816.26 C195.16,783.08 211.472,756.9898 235.022,729.3098 " fill="none" id="GameOver-to-HomebaseState" style="stroke:#181818;stroke-width:1.0;"/><polygon fill="#181818" points="238.91,724.74,230.0314,729.0028,235.67,728.5482,236.1246,734.1868,238.91,724.74" style="stroke:#181818;stroke-width:1.0;"/><text fill="#000000" font-family="sans-serif" font-size="13" lengthAdjust="spacing" textLength="44" x="126.76" y="1025.9584">Restart</text></g><!--SRC=[XLRDSjis4BxpANPoQEjCrQGzQc8VB3kLP-mwhUnsEdKFCBcIC2O13W1ASJjwzomM14cGJCiJiFlj_sANzaMgMXXHWNN28VoR0NsN8d_P6TseOgLBRJvyOAQzk81RkTkxoxB1ULo5geceFx4izN4UXwg8i9KseWmeRGeqZ83BaaIO-b4hjv7_8FpuKtRACjivF58ApWXbYONAPTctS7v-3Xjssn-plzx-3Ol51Tm9gUx8IzB40SSxTCw750JkcojfwrAymeDq9Ru1OS7vqn2osUiZN3REQMKPeMidwSoOQBQNuXFJ8kuKVLdh2f-5HNOR1bbFN7hmSMxHm8t3oiBMQCf5ioLAyAzb3qNkz051SAvWtnfXSBmCmVSrAlZOb2NSg0CbKvjNy1bY0Hb94udVqA8m-Rx7cfOoWJxMEoCAAam7RLhA1BeXMzZZhBycoHSKsS-Y2k5OkZ4tpVqm8_72d2JyU65E6cV2Ii9AEBrt2Ja9BXM8_dRcfcv5SrCEcvkIexaP0P-iXDgrtfKyT6qdSaUtSTjjQd5Ki38eN4C-XNnxsX3qkyGZF61L-qVTzqzeJ28JPLgVWHQsuMaxAgb_U3qwM8ZqrhU1wUlFDKq1uPyKcqE-um2OFWYfTeoh-3W7MkdgMRXtiR7VhOKve7LHC6Vsl61POkx20ssnJ4d0oINcOiQRG6BkZCc4EpKI9BwckfMOOv-wqs8nJlLZNN3FOEts75xXJsEKzNDn_NWL1arJT7n6myBuwU-RSS2YConAt7fwh_JKTq5NVtxOWuvgpsdpzFtzIJGMY_yPyWpgXqtjhxmhXXNggProFt_k3pHJucARrNv5ByTFHsl53jkq2PTCnrjDzgVF1xw1EwqmFADIjwyvEjHhuHFJ67IAQz3lEE2r8NdZy4BCkitd1TBLiuHRBGgEAuLvcqlujP6qObCHp-s7oDAlNkEW84hOK8NMPaQaqxwa1KA3HO7JN84PR5l39LnlLl22LDxUu2m_POz3l54E3SqwE4hAciXpgWpKMYhtfBuBpfoDL7I5Ni8dAYaTkAY4twCeISivl0TjdfJ-_BgZxKNNiopBMiV6AQB1qbIXUqY3t8RMAjfy4V1iA3bs_p-buu1FDFJ58u4_T5CMy8oWP4x_1lO5jlGFbMkrbQRYAVgaI2a96v3qJwD2BTdw3nHKbugl-ERBdyK6_4N7tp159-2N3thR_upvxhrMZbgT2y3t-_1xDEZ5xqFdqHi3hoSRQOikiVHQrFJ_OE6uHxLaoWBMeKWKplkMSX_gr55updJwlm00]--></g></svg>